<?xml version="1.0" encoding="utf-8"?>
<!-- Generator: Adobe Illustrator 18.1.0, SVG Export Plug-In . SVG Version: 6.00 Build 0)  -->
<!DOCTYPE svg PUBLIC "-//W3C//DTD SVG 1.1//EN" "http://www.w3.org/Graphics/SVG/1.1/DTD/svg11.dtd">
<svg version="1.1" id="Слой_1" xmlns="http://www.w3.org/2000/svg" xmlns:xlink="http://www.w3.org/1999/xlink" x="0px" y="0px"
	 viewBox="-5646 2529.3 612 612" enable-background="new -5646 2529.3 612 612" xml:space="preserve">
<path fill="#1EB3C2" d="M-5340,2529.3c-169.7,0-306,136.3-306,306c0,169.7,136.3,306,306,306s306-136.3,306-306
	C-5034,2665.6-5170.3,2529.3-5340,2529.3z M-5248.2,2699c-13.9,0-30.6,0-44.5,0c-8.3,0-19.5,5.6-22.3,16.7c0,16.7,0,33.4,0,50.1
	c22.3,0,44.5,0,66.8,0c-2.8,25-5.6,47.3-8.3,69.5c-19.5,0-38.9,0-58.4,0c0,69.5,0,139.1,0,208.6c-27.8,0-58.4,0-86.2,0
	c0-69.5,0-139.1,0-208.6c-13.9,0-27.8,0-41.7,0c0-22.3,0-47.3,0-69.5c13.9,0,27.8,0,41.7,0c0-22.3,0-44.5,0-69.5
	c2.8-16.7,8.3-36.2,22.3-50.1c16.7-16.7,38.9-19.5,61.2-22.3c22.3,0,47.3,0,69.5,0C-5248.2,2648.9-5248.2,2673.9-5248.2,2699z"/>
</svg>
